<?xml version="1.0" standalone="no"?>
<!DOCTYPE svg PUBLIC "-//W3C//DTD SVG 20010904//EN"
 "http://www.w3.org/TR/2001/REC-SVG-20010904/DTD/svg10.dtd">
<svg version="1.0" xmlns="http://www.w3.org/2000/svg"
 width="200.000000pt" height="200.000000pt" viewBox="0 0 200.000000 200.000000"
 preserveAspectRatio="xMidYMid meet">

<g transform="translate(0.000000,200.000000) scale(0.100000,-0.100000)"
fill="#999999" stroke="none">
<path d="M649 1860 c-104 -18 -200 -94 -245 -193 -23 -50 -28 -76 -28 -138 -1
-69 3 -84 36 -149 l37 -72 -40 -58 c-49 -72 -77 -148 -89 -243 -5 -40 -10 -75
-10 -79 0 -20 -32 -5 -41 19 -24 64 -83 85 -113 41 -24 -34 -19 -66 13 -98 16
-16 26 -32 23 -35 -14 -13 -81 -3 -106 16 -28 22 -56 20 -56 -5 0 -23 55 -63
98 -70 49 -7 84 5 129 44 46 41 59 38 67 -12 27 -174 152 -355 297 -428 l37
-19 7 -96 c5 -65 13 -102 24 -116 22 -27 92 -42 139 -29 64 17 76 32 82 99 l5
61 155 3 c85 3 162 7 171 11 13 6 17 -4 22 -61 5 -46 13 -73 25 -86 40 -40
149 -41 192 -2 13 12 20 37 25 83 14 160 14 158 50 175 18 9 65 46 104 83 53
49 81 86 109 143 21 42 41 86 44 99 5 19 13 22 53 22 38 0 52 5 76 29 29 29
29 31 29 141 0 78 -4 119 -15 139 -15 31 -59 51 -109 51 -28 0 -34 6 -69 74
-21 41 -56 95 -79 120 l-40 46 46 51 c35 38 46 59 46 83 0 61 -75 104 -195
113 -82 6 -129 -6 -191 -48 -39 -27 -45 -28 -100 -19 -33 5 -95 11 -138 13
l-80 4 -16 50 c-9 27 -28 71 -44 97 -61 104 -209 168 -337 146z m176 -74 c126
-58 192 -207 152 -340 -12 -38 -14 -39 -87 -57 -41 -10 -78 -18 -81 -19 -16
-1 -14 39 2 59 24 30 24 58 -2 100 l-20 34 -69 -7 c-63 -6 -69 -4 -75 14 -4
12 -1 27 5 35 16 20 66 19 74 0 3 -8 15 -15 26 -15 14 0 20 7 20 23 0 29 -25
53 -65 62 -16 4 -35 14 -42 22 -6 8 -20 13 -30 11 -13 -3 -17 -12 -16 -35 2
-18 -4 -36 -12 -43 -22 -18 -18 -73 7 -105 20 -26 24 -27 88 -21 62 6 68 5 73
-13 10 -39 -63 -72 -77 -35 -7 17 -47 16 -53 -2 -7 -21 37 -64 67 -64 19 0 33
-7 40 -19 9 -17 3 -23 -43 -48 -28 -16 -62 -35 -73 -43 -18 -11 -27 -11 -53 0
-42 17 -103 77 -126 125 -23 49 -31 160 -15 212 25 80 95 152 175 181 55 20
155 14 210 -12z m830 -245 c25 -11 45 -25 45 -31 0 -21 -30 -57 -74 -88 -24
-18 -61 -54 -80 -81 l-36 -49 -42 16 c-23 9 -59 33 -80 53 -33 31 -38 42 -38
81 0 36 5 50 29 72 16 15 46 34 67 42 50 19 149 11 209 -15z m-373 -46 c13 -5
16 -14 11 -36 -8 -42 23 -115 61 -144 44 -33 162 -86 178 -80 8 3 22 21 32 40
11 19 27 42 37 51 16 14 20 12 60 -38 23 -29 60 -90 81 -135 l39 -83 59 0 c75
0 80 -9 80 -127 0 -112 -6 -121 -85 -125 l-59 -3 -21 -60 c-43 -123 -103 -203
-202 -267 -141 -94 -294 -132 -518 -131 -159 1 -249 19 -363 75 -80 39 -194
148 -235 225 -58 108 -83 288 -56 403 12 52 60 155 89 188 l20 24 35 -22 c25
-16 34 -27 30 -40 -3 -9 1 -23 9 -29 12 -10 24 -5 67 29 102 81 236 132 382
146 39 4 75 11 79 17 12 20 -4 37 -36 37 l-33 0 11 51 11 52 110 -6 c60 -3
118 -8 127 -12z m-1067 -573 c-8 -9 -25 20 -18 31 3 5 10 2 15 -7 6 -10 7 -20
3 -24z m1240 -634 c-4 -46 -12 -86 -18 -90 -15 -10 -89 -10 -104 0 -6 4 -15
34 -18 67 l-7 61 68 21 c38 11 73 21 78 22 5 0 5 -35 1 -81z m-647 40 l52 -12
0 -44 c0 -67 -12 -82 -69 -82 -27 0 -53 6 -59 13 -5 6 -12 43 -14 80 -4 65 -3
68 16 62 12 -3 45 -11 74 -17z"/>
<path d="M1465 1196 c-16 -7 -39 -23 -49 -35 -18 -20 -18 -23 -4 -38 15 -14
19 -14 44 6 16 13 41 21 64 21 23 0 48 -8 64 -21 25 -20 29 -20 44 -6 14 15
14 18 -4 38 -22 26 -74 49 -106 49 -13 -1 -36 -7 -53 -14z"/>
</g>
</svg>
